<svg xmlns="http://www.w3.org/2000/svg" viewBox="0 0 294.01 195.5"><defs><style>.cls-1,.cls-2{fill:#e84855;}.cls-2{stroke:#933;stroke-miterlimit:10;stroke-width:5px;}.cls-3{fill:#e85855;}</style></defs><g id="Layer_2" data-name="Layer 2"><g id="Layer_1-2" data-name="Layer 1"><path class="cls-1" d="M91.14,0c1.68,3.65,14.65,30.59,44.71,37.92,26,6.35,54.33-4.58,71.32-27.73-12.84,17.39-34.49,52-40.19,100.18a205.16,205.16,0,0,0,1.7,59.43A438.18,438.18,0,0,1,136.42,120,443.19,443.19,0,0,1,91.14,0Z"/><path class="cls-2" d="M183.3,87.17c-4.65,17.25-9.85,46-4.53,83.2,15.33-32.13,33.9-49.56,47.55-59.43,30.39-22,59.74-23.38,64.52-44.72,2.34-10.44-1.61-23.83-9-27.17-9.29-4.17-21,8.71-27.17,4-5-3.81.71-13.46-5.1-21.51-4.58-6.36-13.76-8.11-18.67-7.93C203.42,14.6,185.21,80.08,183.3,87.17Z"/><path class="cls-2" d="M110.61,93.39c9.8,23.21,21.09,40.55,28.3,51.51s14,19.95,19.24,26.6a736,736,0,0,1-87.73-43C8.61,92.87,2.54,77.26,2.5,66.79,2.46,56.52,8.35,43,17.78,39.62c11.08-3.91,22.39,8,28.87,2.83,4.84-3.85-.28-11.44,5.09-19.81,5.14-8,17.13-12.42,24.91-9.06C83.82,16.69,85.91,25.7,88,33.39,88,33.39,92.65,50.88,110.61,93.39Z"/><circle class="cls-1" cx="147.74" cy="16.41" r="14.72"/><circle class="cls-3" cx="172" cy="187.5" r="8"/></g></g></svg>