<svg width="1206" height="669" viewBox="0 0 1206 669" fill="none" xmlns="http://www.w3.org/2000/svg">
<g clip-path="url(#clip0_48_30)">
<path d="M1113.53 534.658C1112.19 537.554 1110.85 540.411 1109.52 543.23C1107.43 547.609 1105.37 551.903 1103.34 556.112C1102.44 557.977 1101.54 559.807 1100.66 561.638C1090.7 581.991 1081.4 599.993 1073.5 614.797C1066.33 628.218 1055.69 639.465 1042.69 647.359C1029.69 655.252 1014.8 659.502 999.596 659.663L823.963 661.574H822.11L807.054 661.737L794.175 661.876L754.717 662.327H753.119L733.014 662.548H732.4L608.478 663.891L497.864 665.05L484.997 665.189L405.085 666.058H404.957L353.13 666.614H352.574L188.697 668.386L139.673 668.919C135.498 668.967 131.325 668.758 127.176 668.293C125.763 668.131 124.35 667.946 122.949 667.726C100.085 664.195 79.1203 652.936 63.5477 635.823C42.4579 612.515 27.1124 585.524 16.8049 556.112C15.3148 551.872 13.925 547.578 12.6356 543.23C-23.0469 422.534 20.4531 266.889 98.7437 162.758C102.025 158.403 105.361 154.155 108.75 150.016L108.831 149.923C132.909 120.36 159.905 95.6625 188.662 78.1008C239.621 46.9277 296.08 38.1468 351.613 64.3156C398.599 86.4646 442.47 96.8788 484.997 99.7054C489.294 99.9834 493.59 100.192 497.864 100.319C595.414 103.389 686.838 68.231 794.199 45.5376C798.472 44.634 802.757 43.742 807.077 42.8964C883.665 27.6515 968.627 19.6121 1069.66 36.5135C1080.16 38.2287 1090.52 40.7065 1100.66 43.9273C1105.11 45.3638 1109.4 46.9084 1113.53 48.561C1161.76 68.1847 1188.06 104.443 1199.24 149.877C1200.29 154.093 1201.21 158.383 1201.98 162.747C1221.8 272.032 1163.76 427.052 1113.53 534.658Z" fill="#A7DADC" fill-opacity="0.22"/>
<path opacity="0.1" d="M575.622 543.23C575.155 547.563 574.432 551.865 573.456 556.112H681.974V543.23H575.622ZM484.997 615.991L497.864 615.886V584.065C493.451 583.868 489.155 583.671 484.997 583.462V615.991ZM215.242 543.23V556.112H445.133V543.23H215.242ZM1199.29 149.888H1113.59V48.5726C1109.46 46.889 1105.17 45.3445 1100.71 43.9389V149.934H807.077V42.8616C802.757 43.7072 798.472 44.5992 794.199 45.5028V149.888H497.864V100.285C493.59 100.157 489.294 99.9486 484.997 99.6706V149.888H188.662V78.066C159.905 95.6277 132.909 120.325 108.831 149.888H108.75V149.981C105.353 154.151 102.017 158.399 98.7437 162.723H108.75V543.23H12.624C13.9057 547.578 15.2955 551.872 16.7933 556.112H108.739V664.563C113.365 665.978 118.087 667.059 122.868 667.795C124.269 668.015 125.682 668.201 127.095 668.363C131.244 668.827 135.417 669.036 139.592 668.988L188.616 668.456V556.089H484.997V665.224L497.864 665.085V556.112H794.199V661.887L807.077 661.748V556.112H1100.66V561.638C1101.54 559.807 1102.44 557.977 1103.34 556.112C1105.37 551.911 1107.43 547.617 1109.52 543.23C1110.85 540.411 1112.19 537.554 1113.53 534.658V162.805H1202.04C1201.26 158.41 1200.34 154.105 1199.29 149.888ZM188.662 543.23V162.758H484.997V543.23H188.662ZM497.887 543.23V162.758H794.199V543.23H497.887ZM1100.68 543.23H807.077V162.758H1100.66L1100.68 543.23Z" fill="#040C15"/>
<path d="M966.739 409.016C950.692 379.373 927.949 353.888 900.319 334.587C898.345 333.223 896.066 332.364 893.683 332.085C896.938 310.677 896.254 287.022 884.175 269.182C855.511 226.854 709.469 270.538 709.469 270.538C607.1 235.044 518.375 280.095 518.375 280.095C518.375 280.095 405.085 262.348 353.223 276.006C328.763 282.446 322.822 307.399 323.378 331.98H323.297C321.128 331.977 318.986 332.462 317.031 333.401C315.076 334.339 313.358 335.707 312.005 337.402C298.211 354.639 256.541 407.73 257.676 417.982C259.043 430.273 304.083 589.996 302.045 667.135L931.254 660.184C931.254 660.184 941.677 504.956 967.747 419.986C968.877 416.34 968.514 412.394 966.739 409.016Z" fill="#040C15" fill-opacity="0.88"/>
<path opacity="0.1" d="M310.244 418.677L336.175 366.791L358.006 467.817L358.261 514.71L310.244 418.677Z" fill="black"/>
<path opacity="0.1" d="M905.322 418.677L879.391 366.791L849.314 462.581L855.105 517.027L905.322 418.677Z" fill="black"/>
<path d="M356.106 465.06L849.361 462.361L854.827 516.969L358.006 515.602L356.106 465.06Z" fill="#3F3D56"/>
<path opacity="0.1" d="M356.106 465.06L849.361 462.361L854.827 516.969L358.006 515.602L356.106 465.06Z" fill="#040C15"/>
<path opacity="0.1" d="M845.296 511.652H368.07C361.373 511.652 355.944 517.082 355.944 523.78V558.232C355.944 564.93 361.373 570.36 368.07 570.36H845.296C851.992 570.36 857.421 564.93 857.421 558.232V523.78C857.421 517.082 851.992 511.652 845.296 511.652Z" fill="white"/>
<path d="M754.798 315.253C754.798 315.253 753.13 312.936 751.161 314.187C750.223 314.801 745.81 320.361 741.479 326.015C739.348 328.783 737.229 331.575 735.549 333.799C733.476 336.533 732.075 338.433 732.075 338.433L731.241 339.997L726.18 349.461L721.42 358.358L720.262 362.551L736.337 368.019L754.635 363.026L753.848 359.632L753.709 359.053L753.86 351.245L754.276 329.235L754.473 319.33V318.172L754.798 315.253Z" fill="#FFE09C"/>
<path d="M717.992 369.513C717.992 369.513 735.364 375.711 744.271 372.467C744.271 372.467 751.972 370.011 755.007 367.637C755.007 367.637 758.238 365.945 753.848 360.431C753.848 360.431 742.603 367.324 731.959 364.613L721.316 361.891L717.992 369.513Z" fill="#E7C4C3"/>
<path d="M737.37 361.672C740.079 360.084 741.185 356.935 739.84 354.638C738.495 352.342 735.208 351.768 732.498 353.356C729.788 354.944 728.682 358.093 730.028 360.39C731.373 362.686 734.66 363.26 737.37 361.672Z" fill="#FF7F8E"/>
<path d="M748.922 347.818C751.632 346.229 752.738 343.08 751.393 340.784C750.047 338.488 746.76 337.914 744.051 339.502C741.341 341.09 740.235 344.239 741.58 346.536C742.926 348.832 746.213 349.406 748.922 347.818Z" fill="#FF7F8E"/>
<path d="M753.848 351.245C752.976 350.881 752.029 350.73 751.087 350.804C750.144 350.879 749.233 351.177 748.428 351.674C745.718 353.261 744.606 356.412 745.961 358.705C747.316 360.999 750.594 361.578 753.293 359.991C753.478 359.875 753.663 359.759 753.837 359.632L753.698 359.053L753.848 351.245Z" fill="#FF7F8E"/>
<path d="M734.195 342.059C733.873 341.526 733.443 341.068 732.932 340.712C732.421 340.357 731.841 340.113 731.23 339.997L726.169 349.461C727.055 349.86 728.025 350.036 728.995 349.971C729.964 349.906 730.903 349.604 731.728 349.09C734.438 347.503 735.538 344.352 734.195 342.059Z" fill="#FF7F8E"/>
<path d="M745.452 328.192C745.034 327.523 744.452 326.972 743.76 326.59C743.069 326.209 742.292 326.011 741.503 326.015C739.372 328.783 737.253 331.575 735.573 333.799L735.643 333.938C736.986 336.255 740.275 336.799 742.985 335.212C745.695 333.625 746.773 330.486 745.452 328.192Z" fill="#FF7F8E"/>
<path d="M754.463 319.319C753.865 319.469 753.292 319.703 752.76 320.014C750.05 321.601 748.95 324.752 750.293 327.046C750.714 327.718 751.3 328.272 751.995 328.653C752.691 329.035 753.473 329.231 754.266 329.223L754.463 319.319Z" fill="#FF7F8E"/>
<path d="M727.489 357.303L726.562 355.74C727.95 355.325 729.23 354.614 730.315 353.654C730.384 353.585 730.442 353.504 730.5 353.434C731.658 351.975 731.415 355.01 731.415 355.01C731.415 355.01 728.566 357.431 727.489 357.303Z" fill="#94CC79"/>
<path d="M741.155 354.882L740.229 353.307C741.615 352.89 742.895 352.179 743.981 351.222C743.981 351.152 744.108 351.083 744.166 351.002C745.324 349.554 745.081 352.577 745.081 352.577C745.081 352.577 742.232 355.01 741.155 354.882Z" fill="#94CC79"/>
<path d="M739.904 348.395L738.978 346.82C740.363 346.407 741.643 345.699 742.73 344.746C742.788 344.665 742.857 344.596 742.915 344.526C744.073 343.067 743.83 346.09 743.83 346.09C743.83 346.09 740.981 348.499 739.904 348.395Z" fill="#94CC79"/>
<path d="M741.56 336.695L740.634 335.12C742.02 334.703 743.3 333.992 744.386 333.035C744.386 332.965 744.514 332.896 744.571 332.814C745.73 331.355 745.486 334.39 745.486 334.39C745.486 334.39 742.637 336.811 741.56 336.695Z" fill="#94CC79"/>
<path d="M749.401 322.539L748.486 320.964C749.87 320.548 751.146 319.837 752.227 318.879C752.295 318.811 752.357 318.737 752.412 318.659C753.571 317.211 753.339 320.234 753.339 320.234C753.339 320.234 750.478 322.655 749.401 322.539Z" fill="#94CC79"/>
<path d="M748.521 336.985L747.595 335.409C748.981 334.999 750.262 334.291 751.347 333.336C751.347 333.255 751.475 333.185 751.532 333.116C752.691 331.656 752.447 334.68 752.447 334.68C752.447 334.68 749.598 337.112 748.521 336.985Z" fill="#94CC79"/>
<path d="M715.143 364.613C715.143 364.613 712.92 370.405 717.992 369.479C720.25 366.861 721.794 363.705 722.475 360.315C722.475 360.315 733.442 336.278 736.685 334.077C736.685 334.077 750.976 314.535 752.517 314.245C752.517 314.245 753.015 312.345 748.023 316.365C743.032 320.385 732.099 335.861 732.099 335.861L721.675 352.855L719.22 359.632L715.143 364.613Z" fill="#E7C4C3"/>
<path opacity="0.2" d="M715.143 364.613C715.143 364.613 712.92 370.405 717.992 369.479C720.25 366.861 721.794 363.705 722.475 360.315C722.475 360.315 733.442 336.278 736.685 334.077C736.685 334.077 750.976 314.535 752.517 314.245C752.517 314.245 753.015 312.345 748.023 316.365C743.032 320.385 732.099 335.861 732.099 335.861L721.675 352.855L719.22 359.632L715.143 364.613Z" fill="white"/>
<path d="M542.869 482.274C544.781 488.557 547.134 494.696 549.911 500.647C557.886 498.978 565.731 496.741 573.386 493.951C573.629 493.87 568.997 487.811 568.51 487.313C566.624 485.228 564.376 483.501 561.874 482.216C559.431 481.15 556.419 481.961 553.767 482.1C550.154 482.286 546.521 482.344 542.869 482.274Z" fill="#FBBEBE"/>
<path d="M561.921 491.785C557.937 490.534 555.505 486.514 553.884 482.645C552.262 478.776 550.953 474.536 547.873 471.709C547.288 471.798 546.734 472.031 546.261 472.387C545.788 472.743 545.411 473.211 545.163 473.748C544.682 474.834 544.145 475.893 543.553 476.922C542.279 478.776 540.078 479.679 538.399 481.255C536.72 482.83 535.782 485.228 534.033 486.815C531.832 488.808 528.729 489.306 525.845 489.966C521.378 490.98 517.064 492.577 513.013 494.715C511.522 495.615 509.927 496.331 508.264 496.847C506.433 497.204 504.556 497.267 502.705 497.032L489.965 496.129C488.831 495.983 487.68 496.03 486.56 496.268C485.272 496.738 484.176 497.621 483.443 498.78C482.71 499.939 482.38 501.308 482.507 502.674C482.67 504.035 483.112 505.347 483.806 506.529C484.499 507.711 485.429 508.737 486.537 509.543C488.763 511.126 491.215 512.364 493.81 513.215C504.924 517.418 516.367 520.688 528.022 522.993V525.518C536.124 529.513 545.036 531.589 554.069 531.588C554.735 531.635 555.403 531.52 556.014 531.252C556.85 530.647 557.435 529.757 557.659 528.75C560.726 519.778 562.515 510.419 562.975 500.948C563.202 498.552 563.018 496.134 562.431 493.8C561.736 491.483 564.122 492.468 561.909 491.565" fill="#040C15"/>
<path d="M806.659 443.664C768.823 445.981 731.38 434.848 693.555 433.667C688.845 433.369 684.117 433.673 679.483 434.57C674.619 435.659 670.079 437.86 665.586 439.968C645.26 449.421 624.252 457.252 603.254 465.071L579.142 474.061C574.324 475.856 569.332 477.675 564.202 477.362C561.885 477.223 559.071 476.876 557.786 478.787C553.859 484.579 555.712 493.14 558.307 499.639C559.141 501.747 560.623 504.041 562.824 504.272C564.41 504.435 565.893 503.519 567.456 503.114C571.845 501.956 576.223 504.898 580.74 505.373C586.322 505.964 591.499 502.79 596.769 500.844C605.501 497.612 615.056 497.716 624.24 496.21C639.643 493.638 653.912 486.491 667.253 478.347C672.326 475.242 677.468 471.918 683.305 470.783C690.011 469.474 696.902 471.2 703.492 473.099C719.176 477.536 734.616 482.795 749.748 488.854C757.716 492.051 765.638 495.468 773.93 497.681C791.868 502.399 810.841 501.291 828.108 494.519C834.154 492.121 840.744 487.892 841.091 481.359C841.288 477.629 838.393 474.408 836.459 471.165C835.231 469.114 833.992 467.076 832.637 465.106C826.07 455.538 818.148 442.98 806.659 443.664Z" fill="#F2FAEF"/>
<path d="M615.508 484.116C621.422 486.132 627.398 487.989 633.436 489.688C636.806 484.151 643.118 480.293 644.554 473.968C644.614 473.828 644.644 473.677 644.642 473.525C644.64 473.373 644.605 473.223 644.54 473.085C644.476 472.947 644.383 472.824 644.267 472.725C644.152 472.625 644.017 472.552 643.871 472.509C639.557 470.119 634.767 468.714 629.846 468.396C625.954 468.153 624.182 472.207 622.41 475.069C621.704 476.215 617.094 484.66 615.508 484.116Z" fill="#FBBEBE"/>
<path d="M623.846 480.073C622.078 479.774 620.391 479.111 618.891 478.126C617.392 477.141 616.114 475.855 615.137 474.35C614.303 472.891 613.412 470.875 611.744 471.026C610.076 471.176 609.427 472.983 609.126 474.501C608.003 480.245 606.372 485.878 604.251 491.333C602.121 496.799 598.512 501.565 593.827 505.095C591.627 506.612 589.195 507.759 587.041 509.358C585.106 510.783 583.427 512.59 581.25 513.69C579.827 514.35 578.355 514.9 576.849 515.335C574.639 516.115 572.525 517.145 570.549 518.405C568.813 519.409 567.343 520.816 566.263 522.506C565.718 523.362 565.398 524.342 565.336 525.356C565.273 526.369 565.469 527.381 565.904 528.298C566.362 529.047 566.974 529.69 567.698 530.185C568.423 530.681 569.244 531.017 570.108 531.171C571.833 531.472 573.593 531.519 575.332 531.31C582.223 530.8 589.114 530.152 596.005 529.572C598.916 529.396 601.812 529.009 604.668 528.414C606.185 528.043 607.656 527.568 609.161 527.174C611.738 526.512 614.378 526.124 617.037 526.016C617.815 525.955 618.598 526.025 619.353 526.225C620.951 526.746 622.074 528.333 623.731 528.657C624.787 528.758 625.853 528.615 626.846 528.24C631.803 526.885 637.026 526.92 642.157 526.642C644.473 526.526 647.067 526.097 648.11 524.07C649.407 521.545 647.253 518.718 646.407 515.961C645.975 514.228 645.735 512.453 645.689 510.667C645.299 506.261 644.006 501.982 641.89 498.098C640.142 494.878 637.744 491.31 638.972 487.846C639.389 486.688 640.223 485.529 640.13 484.371C639.736 478.822 626.985 480.733 623.846 480.073Z" fill="#040C15"/>
<path d="M749.922 382.951C743.225 379.991 737.861 374.655 734.866 367.973C734.229 366.536 733.708 365.042 733.106 363.594C731.12 358.774 728.034 354.486 724.096 351.071C723.672 350.608 723.154 350.243 722.576 349.999C721.999 349.755 721.375 349.639 720.749 349.658C720.143 349.842 719.597 350.184 719.165 350.648C718.734 351.112 718.433 351.681 718.293 352.299C717.947 353.617 717.86 354.991 718.039 356.342C718.377 359.526 718.926 362.684 719.683 365.795L721.513 374.147C721.739 375.435 722.128 376.688 722.671 377.877C723.457 379.285 724.498 380.534 725.74 381.561C727.419 383.113 729.122 384.607 730.848 386.067C733.253 388.37 736.386 389.763 739.707 390.006C747.212 391.396 754.856 393.412 761.203 398.312C761.121 398.312 761.203 392.705 761.064 392.068C760.774 390.388 760.542 388.72 759.454 387.585C756.964 385.036 752.922 384.306 749.922 382.951Z" fill="#FBBEBE"/>
<path opacity="0.1" d="M749.922 382.951C743.225 379.991 737.861 374.655 734.866 367.973C734.229 366.536 733.708 365.042 733.106 363.594C731.12 358.774 728.034 354.486 724.096 351.071C723.672 350.608 723.154 350.243 722.576 349.999C721.999 349.755 721.375 349.639 720.749 349.658C720.143 349.842 719.597 350.184 719.165 350.648C718.734 351.112 718.433 351.681 718.293 352.299C717.947 353.617 717.86 354.991 718.039 356.342C718.377 359.526 718.926 362.684 719.683 365.795L721.513 374.147C721.739 375.435 722.128 376.688 722.671 377.877C723.457 379.285 724.498 380.534 725.74 381.561C727.419 383.113 729.122 384.607 730.848 386.067C733.253 388.37 736.386 389.763 739.707 390.006C747.212 391.396 754.856 393.412 761.203 398.312C761.121 398.312 761.203 392.705 761.064 392.068C760.774 390.388 760.542 388.72 759.454 387.585C756.964 385.036 752.922 384.306 749.922 382.951Z" fill="black"/>
<path d="M826.974 318.995C832.059 318.995 836.181 314.851 836.181 309.739C836.181 304.627 832.059 300.483 826.974 300.483C821.889 300.483 817.767 304.627 817.767 309.739C817.767 314.851 821.889 318.995 826.974 318.995Z" fill="#2F2E41"/>
<path d="M821.276 304.144C818.786 303.866 816.007 303.669 814.003 305.198C812.939 306.133 812.09 307.287 811.513 308.58C809.453 312.122 807.846 315.909 806.73 319.852C805.908 323.234 805.769 326.802 804.749 330.092C802.862 336.255 798.032 341.456 797.476 347.886C797.233 350.758 797.719 354.129 795.612 356.099C795.098 356.531 794.547 356.919 793.967 357.257C792.511 358.233 791.276 359.504 790.342 360.987C789.71 362.32 788.838 363.525 787.771 364.544C785.895 365.934 782.791 365.783 781.864 367.938C780.938 370.092 783.324 372.572 782.768 374.888C782.316 376.788 780.197 377.657 778.737 378.954C776.861 380.611 776.004 383.102 775.263 385.488C772.186 386.07 769.019 385.979 765.98 385.221C762.942 384.463 760.103 383.056 757.659 381.098C760.219 387.422 760.277 394.408 760.392 401.242C760.392 403.455 760.392 405.946 758.771 407.486C766.102 407.649 773.248 409.629 780.394 411.251C783.521 411.958 786.914 412.572 789.821 411.251C791.462 410.368 792.926 409.19 794.141 407.776C798.032 403.826 802.109 399.528 803.058 394.049C803.591 390.99 803.059 387.84 803.221 384.781C803.579 380.939 804.355 377.148 805.537 373.475C807.598 365.858 808.981 358.074 809.672 350.214C810.088 345.372 814.304 341.468 816.481 337.124C820.651 328.945 824.901 320.419 825.214 311.233C825.364 308.198 824.322 304.479 821.276 304.144Z" fill="#2F2E41"/>
<path opacity="0.1" d="M821.276 304.144C818.786 303.866 816.007 303.669 814.003 305.198C812.939 306.133 812.09 307.287 811.513 308.58C809.453 312.122 807.846 315.909 806.73 319.852C805.908 323.234 805.769 326.802 804.749 330.092C802.862 336.255 798.032 341.456 797.476 347.886C797.233 350.758 797.719 354.129 795.612 356.099C795.098 356.531 794.547 356.919 793.967 357.257C792.511 358.233 791.276 359.504 790.342 360.987C789.71 362.32 788.838 363.525 787.771 364.544C785.895 365.934 782.791 365.783 781.864 367.938C780.938 370.092 783.324 372.572 782.768 374.888C782.316 376.788 780.197 377.657 778.737 378.954C776.861 380.611 776.004 383.102 775.263 385.488C772.186 386.07 769.019 385.979 765.98 385.221C762.942 384.463 760.103 383.056 757.659 381.098C760.219 387.422 760.277 394.408 760.392 401.242C760.392 403.455 760.392 405.946 758.771 407.486C766.102 407.649 773.248 409.629 780.394 411.251C783.521 411.958 786.914 412.572 789.821 411.251C791.462 410.368 792.926 409.19 794.141 407.776C798.032 403.826 802.109 399.528 803.058 394.049C803.591 390.99 803.059 387.84 803.221 384.781C803.579 380.939 804.355 377.148 805.537 373.475C807.598 365.858 808.981 358.074 809.672 350.214C810.088 345.372 814.304 341.468 816.481 337.124C820.651 328.945 824.901 320.419 825.214 311.233C825.364 308.198 824.322 304.479 821.276 304.144Z" fill="black"/>
<g filter="url(#filter0_d_48_30)">
<path d="M812.624 451.634C804.749 447.88 798.981 440.895 792.611 434.906C780.451 423.484 765.569 415.398 752.783 404.683C744.305 397.593 736.731 389.322 727.419 383.38C719.224 378.169 709.939 374.919 700.284 373.881C699.178 373.684 698.042 373.739 696.96 374.043C695.739 374.583 694.676 375.424 693.868 376.487C689.742 381.145 686.074 386.188 682.912 391.546C666.698 419.059 643.674 442.227 624.599 467.794C623.997 468.402 623.64 469.211 623.597 470.066C623.554 470.921 623.829 471.762 624.368 472.427L628.247 480.027C630.413 484.29 633.899 489.294 638.578 488.402C640.721 488.008 642.423 486.433 643.998 484.927L661.37 468.28L679.634 450.811C690.335 440.582 701.21 430.11 708.194 417.032C713.637 426.484 723.319 432.67 729.956 441.359C732.48 444.648 734.588 448.309 736.789 451.784C740.402 457.368 744.514 462.616 748.613 467.852L769.564 494.6C772.413 498.237 775.355 501.967 779.258 504.435C784.226 507.574 790.26 508.408 796.097 508.929C803.968 509.632 811.869 509.918 819.77 509.787C825.792 509.682 832 509.288 837.408 506.612C842.817 503.937 847.253 498.503 846.975 492.387C846.643 489.244 845.61 486.215 843.952 483.525C836.517 469.74 826.73 458.329 812.624 451.634Z" fill="white"/>
</g>
<path d="M832.637 323.269C836.545 323.269 839.713 320.079 839.713 316.145C839.713 312.21 836.545 309.021 832.637 309.021C828.729 309.021 825.561 312.21 825.561 316.145C825.561 320.079 828.729 323.269 832.637 323.269Z" fill="#E8E8F0"/>
<path d="M831.074 310.793C832.665 313.964 832.944 317.635 831.849 321.01C830.754 324.34 829.224 327.511 827.298 330.44C825.641 333.463 823.656 336.295 821.38 338.885C832.301 339.418 842.898 335.131 852.534 329.93C860.294 325.76 868.03 320.593 872.223 312.785C870.99 313.084 869.709 313.12 868.461 312.89C867.214 312.661 866.03 312.171 864.984 311.453C862.904 310.001 861.041 308.261 859.448 306.287L853.959 300.112C852.67 298.77 851.54 297.286 850.588 295.687C849.399 293.5 848.894 291.006 849.141 288.528C846.962 290.811 844.525 292.833 841.879 294.552C837.965 297.1 833.645 298.954 829.719 301.502C828.329 302.394 825.225 303.819 826.024 305.661C826.823 307.503 829.996 308.847 831.074 310.793Z" fill="#FBBEBE"/>
<path opacity="0.1" d="M831.074 310.793C832.665 313.964 832.944 317.635 831.849 321.01C830.754 324.34 829.224 327.511 827.298 330.44C825.641 333.463 823.656 336.295 821.38 338.885C832.301 339.418 842.898 335.131 852.534 329.93C860.294 325.76 868.03 320.593 872.223 312.785C870.99 313.084 869.709 313.12 868.461 312.89C867.214 312.661 866.03 312.171 864.984 311.453C862.904 310.001 861.041 308.261 859.448 306.287L853.959 300.112C852.67 298.77 851.54 297.286 850.588 295.687C849.399 293.5 848.894 291.006 849.141 288.528C846.962 290.811 844.525 292.833 841.879 294.552C837.965 297.1 833.645 298.954 829.719 301.502C828.329 302.394 825.225 303.819 826.024 305.661C826.823 307.503 829.996 308.847 831.074 310.793Z" fill="black"/>
<path d="M831.224 311.87C829.174 315.345 828.734 319.4 831.224 322.551C831.537 322.945 832.683 325.377 833.181 325.401C833.663 325.352 834.11 325.125 834.432 324.763C837.084 322.342 839.065 319.249 841.381 316.504C843.697 313.758 846.651 311.268 850.194 310.712C854.468 310.051 858.603 312.31 862.343 314.5C863.971 315.293 865.39 316.456 866.49 317.894C867.278 319.32 867.744 320.902 867.856 322.528C869.142 332.27 869.119 342.14 869.084 351.963C869.084 359.076 869.084 366.223 867.694 373.197C866.999 376.811 865.957 380.345 865.459 383.982C865.102 387.193 864.958 390.425 865.03 393.655V407.185C864.936 409.668 865.111 412.154 865.551 414.599C866.188 417.565 867.59 420.298 868.528 423.183C869.496 426.498 870.159 429.895 870.508 433.331L872.361 447.336C872.94 451.75 873.369 456.603 870.705 460.079C869.547 461.677 867.914 462.963 866.698 464.562C862.065 470.516 863.583 479.03 861.672 486.317C860.168 491.651 857.073 496.4 852.8 499.928C849.523 502.709 845.296 504.886 841.091 504.11C835.405 503.056 831.988 497.16 830.436 491.518C828.885 485.877 828.329 479.818 824.97 475.092C822.225 471.223 818.021 468.79 814.13 466.033C810.238 463.276 806.532 459.72 805.699 455.04C805.328 453.001 805.56 450.904 805.34 448.842C805.037 446.228 804.036 443.744 802.442 441.651C800.849 439.558 798.721 437.932 796.283 436.945C793.376 435.787 789.786 435.404 788.176 432.74C792.415 430.354 795.217 425.94 796.7 421.295C798.182 416.649 798.483 411.715 798.773 406.849L799.746 390.573C800.174 383.298 800.371 376.093 803.579 369.56C805.004 366.629 806.787 363.895 808.281 361.01C810.252 356.952 811.935 352.759 813.319 348.465C815.635 341.792 817.952 335.12 820.036 328.366C820.866 325.104 822.103 321.959 823.719 319.006C825.364 316.18 827.935 312.484 831.224 311.87Z" fill="#A7DADC"/>
<path d="M795.09 417.611L799.398 417.762L800.313 411.263C800.43 409.959 800.734 408.68 801.216 407.463C801.929 406.181 802.759 404.967 803.695 403.837C807.934 397.848 807.621 389.936 808.675 382.627C810.076 372.919 814.13 363.837 818.137 354.906L826.522 336.267C828.182 333.1 828.981 329.553 828.838 325.98C828.919 323.095 829.765 312.623 829.846 309.762C829.846 308.696 827.529 309.287 827.008 308.337C825.966 306.263 824.53 311.882 822.573 313.11C820.615 314.338 819.527 316.585 818.704 318.74C816.898 323.431 815.797 328.366 814.072 333.104C812.346 337.842 810.053 342.499 806.266 345.847C804.552 347.353 802.583 348.534 800.962 350.144C795.761 355.288 795.252 363.408 795.067 370.741C794.974 375.039 794.094 417.611 795.09 417.611Z" fill="#2F2E41"/>
<g filter="url(#filter1_d_48_30)">
<path d="M857.073 304.097C852.893 305.742 850.599 310.283 849.43 314.639C848.26 318.994 847.773 323.651 845.527 327.555C840.269 336.695 826.881 339.36 823.186 349.241C822.028 352.473 822.028 356.018 821.692 359.458C821.02 366.536 818.693 373.359 818.009 380.449C817.645 385.948 817.772 391.468 818.391 396.945L823.024 452.769C823.707 460.878 823.684 469.485 821.623 477.316C826.359 478.231 831.293 477.003 835.682 474.999C840.072 472.995 844.091 470.238 848.318 467.91C855.591 463.89 863.617 461.052 869.987 455.7C871.141 454.802 872.129 453.708 872.905 452.468C874.179 450.267 874.295 447.591 874.897 445.112C875.447 443.13 876.147 441.194 876.994 439.32C879.327 433.693 881.36 427.947 883.085 422.106C884.27 418.232 885.203 414.285 885.877 410.29C886.386 407.116 886.664 403.895 886.942 400.686C887.281 395.659 888.278 390.697 889.907 385.928C893.977 374.561 896.285 362.638 896.752 350.573C896.883 348.831 896.762 347.079 896.392 345.372C895.678 343.301 894.73 341.319 893.567 339.464C891.621 335.803 890.451 331.772 888.621 328.042C884.475 319.643 877.144 313.26 869.477 307.92C865.748 305.314 861.347 302.429 857.073 304.097Z" fill="white"/>
</g>
<path d="M759.245 395.172C755.919 393.426 752.909 391.136 750.339 388.396C749.181 387.029 748.208 385.488 747.015 384.144C744.009 380.931 740.101 378.702 735.804 377.75C731.543 376.814 727.184 376.39 722.822 376.487C719.902 376.301 716.973 376.654 714.182 377.53C712.786 377.986 711.528 378.79 710.527 379.866C709.527 380.942 708.816 382.255 708.461 383.681C707.824 387.156 710.094 390.527 712.815 392.763C715.35 394.831 718.332 396.279 721.525 396.991C724.127 397.441 726.752 397.747 729.388 397.906C744.884 399.528 758.713 407.961 772.24 415.642C784.169 422.399 796.325 428.709 808.71 434.57C809.198 430.857 809.403 427.112 809.324 423.368C809.254 420.576 809.115 416.314 806.475 414.669C803.405 412.757 798.368 412.352 794.893 411.193C786.911 408.575 779.114 405.421 771.556 401.752C767.379 399.706 763.276 397.512 759.245 395.172Z" fill="#FBBEBE"/>
<path d="M854.402 287.512C858.3 272.68 849.505 257.513 834.757 253.635C820.01 249.757 804.894 258.636 800.996 273.468C797.098 288.299 805.893 303.467 820.64 307.345C835.388 311.223 850.503 302.343 854.402 287.512Z" fill="#FBBEBE"/>
<path d="M866.112 336.559L866.111 336.56C865 337.853 864.14 339.365 863.339 341.028C862.947 341.841 862.577 342.672 862.196 343.528L862.171 343.585C861.784 344.453 861.387 345.346 860.96 346.223C860.96 346.224 860.96 346.224 860.959 346.225L859.61 345.569C858.169 348.54 856.38 351.332 854.592 354.122C852.156 357.924 849.723 361.721 848.18 365.957L866.112 336.559ZM866.112 336.559C867.565 334.862 869.04 334.015 870.427 333.701C871.817 333.386 873.255 333.578 874.681 334.195C877.579 335.451 880.268 338.411 881.796 341.776C883.492 345.671 884.622 349.789 885.153 354.004L885.16 354.055L885.17 354.105C886.006 358.369 886.385 362.71 886.3 367.054C886.053 372.271 884.583 377.317 883.059 382.543L883.051 382.571L883.043 382.6C882.307 385.556 881.236 388.418 879.851 391.131C878.648 393.135 877.274 395.03 875.744 396.797L875.73 396.813L875.717 396.83L859.814 416.302C857.268 419.286 854.913 422.428 852.762 425.708L852.753 425.722L852.744 425.736C852.124 426.73 851.568 427.692 851.029 428.627C850.028 430.359 849.082 431.997 847.881 433.565L847.879 433.567C844.971 437.373 840.895 440.188 836.65 443.058L836.648 443.06C833.963 444.881 831.483 446.456 828.788 446.615C827.076 446.712 825.36 446.216 823.338 445.632C823.198 445.591 823.057 445.55 822.914 445.509C820.823 444.908 818.391 444.255 815.866 444.713L815.864 444.714C814.433 444.975 813.16 445.561 812.031 446.151C811.625 446.364 811.25 446.569 810.889 446.766C810.186 447.151 809.539 447.505 808.832 447.818C807.865 448.247 806.788 448.5 805.827 448.478C804.896 448.456 804.177 448.184 803.682 447.682C803.186 447.072 802.812 446.372 802.581 445.62L802.568 445.577L802.552 445.535C800.411 439.833 798.43 434.233 798.397 428.468C798.364 422.716 800.644 416.874 805.161 413.999L805.195 413.977L805.228 413.954C805.832 413.522 806.546 413.271 807.285 413.23C807.947 413.306 808.588 413.511 809.171 413.835C811.538 415.168 814.098 416.125 816.759 416.671L816.766 416.672C818.296 416.978 819.88 416.87 821.354 416.359C822.828 415.848 824.138 414.952 825.151 413.765L825.188 413.721L825.223 413.674C826.221 412.3 826.668 410.568 827.022 409.196C827.081 408.969 827.137 408.753 827.192 408.55C827.633 406.93 828.062 405.938 828.903 405.369L828.91 405.365C829.121 405.22 829.386 405.084 829.732 404.927C829.828 404.884 829.942 404.834 830.064 404.78C830.322 404.667 830.618 404.537 830.871 404.413C831.652 404.031 832.723 403.398 833.215 402.116L833.22 402.105C833.421 401.566 833.466 401.035 833.494 400.701L833.495 400.695C833.528 400.3 833.544 400.13 833.588 399.981C833.643 399.795 833.768 399.602 834.061 399.365C834.379 399.107 834.791 398.876 835.355 398.572C835.382 398.558 835.409 398.543 835.436 398.529C835.937 398.259 836.563 397.922 837.11 397.5C837.709 397.037 838.311 396.401 838.636 395.492L838.677 395.378L838.699 395.259C838.858 394.397 838.96 393.525 839.005 392.65L866.112 336.559Z" fill="white" stroke="#A7DADC" stroke-width="3"/>
<path d="M913.105 323.188C914.379 318.433 914.506 313.444 913.475 308.63C912.444 303.817 910.285 299.317 907.175 295.502C911.402 277.465 902.195 259.405 885.981 252.721C886.56 235.808 875.847 220.285 859.344 215.93C842.192 211.423 824.599 220.482 817.199 236.584C806.776 231.175 795.75 231.754 792.113 238.114C788.315 244.763 794.024 255.223 804.853 261.467C808.266 263.462 812.001 264.846 815.89 265.557C817.56 270.282 820.2 274.605 823.641 278.248C827.082 281.891 831.247 284.773 835.868 286.709C835.583 293.548 837.209 300.33 840.564 306.295C843.92 312.26 848.871 317.171 854.862 320.477C855.516 325.231 857.273 329.765 859.992 333.718C859.674 334.547 859.403 335.394 859.182 336.255C855.777 349.171 863.142 362.308 875.616 365.586C888.089 368.865 900.968 361.057 904.361 348.14C905.273 344.697 905.431 341.097 904.824 337.587C908.827 333.618 911.687 328.644 913.105 323.188Z" fill="#040C15"/>
<path opacity="0.1" d="M799.259 241.473C802.896 235.113 813.91 234.522 824.345 239.944C831.722 223.842 849.338 214.771 866.49 219.289C867.266 219.486 868.03 219.729 868.806 219.984C865.873 218.175 862.688 216.808 859.355 215.93C842.203 211.423 824.611 220.482 817.211 236.584C806.787 231.175 795.762 231.754 792.125 238.114C788.326 244.763 794.036 255.223 804.865 261.467C806.897 262.637 809.038 263.607 811.258 264.363C800.904 258.038 795.553 247.96 799.259 241.473Z" fill="black"/>
<path opacity="0.1" d="M866.339 339.614C866.56 338.754 866.831 337.907 867.15 337.078C864.431 333.12 862.674 328.582 862.019 323.825C856.028 320.522 851.077 315.613 847.721 309.65C844.366 303.686 842.74 296.905 843.026 290.069C838.404 288.132 834.239 285.25 830.799 281.607C827.358 277.964 824.718 273.641 823.048 268.916C820.78 268.512 818.563 267.863 816.435 266.981C818.203 271.389 820.832 275.4 824.166 278.781C827.501 282.162 831.475 284.845 835.857 286.675C835.572 293.513 837.198 300.295 840.553 306.26C843.908 312.225 848.859 317.136 854.85 320.443C855.505 325.196 857.262 329.73 859.981 333.683C859.662 334.513 859.392 335.36 859.17 336.22C855.777 349.09 863.085 362.18 875.488 365.517C871.512 362.641 868.506 358.622 866.871 353.994C865.237 349.367 865.051 344.35 866.339 339.614Z" fill="black"/>
<path d="M839.608 290.046C841.477 288.626 841.452 285.447 839.553 282.946C837.653 280.444 834.598 279.568 832.728 280.988C830.859 282.408 830.884 285.587 832.783 288.089C834.683 290.59 837.738 291.467 839.608 290.046Z" fill="#FBBEBE"/>
<path d="M500.087 45.5723C510.506 45.5723 518.953 37.1236 518.953 26.7016C518.953 16.2796 510.506 7.83093 500.087 7.83093C489.667 7.83093 481.221 16.2796 481.221 26.7016C481.221 37.1236 489.667 45.5723 500.087 45.5723Z" fill="#040C15"/>
<path d="M541.028 137.157C570.252 137.157 593.944 106.453 593.944 68.5786C593.944 30.7037 570.252 0 541.028 0C511.803 0 488.112 30.7037 488.112 68.5786C488.112 106.453 511.803 137.157 541.028 137.157Z" fill="#040C15"/>
<path opacity="0.1" d="M541.028 116.445C514.518 116.445 492.559 91.1793 488.703 58.2223C488.302 61.6598 488.101 65.1177 488.101 68.5785C488.101 106.447 511.796 137.157 541.028 137.157C570.259 137.157 593.943 106.447 593.943 68.5785C593.944 65.1177 593.742 61.6598 593.341 58.2223C589.496 91.2257 567.538 116.445 541.028 116.445Z" fill="black"/>
<path d="M653.785 269.426C652.627 274.059 647.751 277.836 642.331 280.442C630.912 285.945 616.852 287.578 603.197 288.134C599.723 288.345 596.238 288.279 592.774 287.937C585.628 287.092 579.004 284.045 574.869 279.701C574.279 279.227 573.871 278.564 573.711 277.824C573.74 277.38 573.857 276.947 574.056 276.549C574.255 276.151 574.531 275.797 574.869 275.507C582.154 267.561 594.291 262.672 606.475 259.197C615.74 256.521 631.885 249.593 641.995 250.532C651.816 251.377 655.221 263.518 653.785 269.426Z" fill="#3F3D56"/>
<path opacity="0.1" d="M653.785 269.426C652.627 274.059 647.751 277.836 642.331 280.442C630.912 285.945 616.852 287.578 603.197 288.134C599.723 288.345 596.238 288.279 592.774 287.937C585.628 287.092 579.004 284.045 574.869 279.701C574.279 279.227 573.871 278.564 573.711 277.824C573.74 277.38 573.857 276.947 574.056 276.549C574.255 276.151 574.531 275.797 574.869 275.507C582.154 267.561 594.291 262.672 606.475 259.197C615.74 256.521 631.885 249.593 641.995 250.532C651.816 251.377 655.221 263.518 653.785 269.426Z" fill="black"/>
<g filter="url(#filter2_d_48_30)">
<path d="M508.716 234.511C505.242 241.327 504.613 249.242 506.967 256.521C509.366 263.759 513.861 270.121 519.88 274.801C534.67 286.675 554.96 288.308 573.873 288.157C590.456 288.008 607.016 286.871 623.465 284.752C628.943 284.045 634.479 283.211 639.551 281.021C645.724 278.346 651.133 273.445 653.345 267.12C655.557 260.795 653.993 252.964 648.712 248.725C644.08 244.995 637.791 244.485 631.896 244.091L598.136 242.064C601.471 238.681 605.907 236.77 609.972 234.325C615.358 231.059 618.936 225.591 622.862 220.668C628.653 213.3 635.602 206.859 642.551 200.453C643.709 206.755 647.635 211.933 652.326 216.289C657.016 220.645 662.425 224.143 667.312 228.279C679.125 238.31 687.626 251.934 700.053 261.201C708.602 258.952 716.594 254.961 723.528 249.478L718.699 240.732C718.303 239.815 717.676 239.017 716.881 238.415C715.503 237.581 713.742 238.009 712.155 237.778C707.917 237.14 706.064 232.24 704.396 228.29C699.833 217.424 691.077 209.002 683.549 199.897C678.059 193.185 673.194 185.984 669.015 178.385C666.501 173.856 664.208 169.118 660.792 165.214C657.375 161.31 652.615 158.264 647.427 158.264C642.794 158.264 638.625 160.58 634.687 162.897C622.692 170.026 611.15 177.891 600.128 186.448C594.337 190.919 588.628 195.657 581.864 198.403C579.015 199.561 576.073 200.349 573.282 201.751C568.499 204.218 564.863 208.388 560.948 212.084C547.004 225.278 527.906 233.827 508.716 234.511Z" fill="white"/>
</g>
<path d="M579.316 140.563C579.165 144.601 578.307 148.58 576.779 152.321C576.006 154.179 574.858 155.858 573.408 157.253C571.957 158.649 570.235 159.73 568.348 160.43C565.664 161.15 562.85 161.241 560.125 160.696C557.744 160.439 555.452 159.647 553.42 158.379C550.258 156.202 548.683 152.321 548.104 148.521C547.525 144.722 547.791 140.841 547.42 137.018C547.06 133.928 546.471 130.87 545.66 127.867C545.417 126.87 545.162 125.874 544.907 124.878C544.652 123.882 544.432 122.885 544.212 121.889C543.992 120.893 543.819 120.024 543.656 119.074C543.494 118.124 543.402 117.476 543.321 116.676C543.247 114.288 542.857 111.919 542.162 109.633C541.503 108.153 540.675 106.754 539.696 105.463C539.279 104.86 538.873 104.304 538.537 103.644C537.459 102.03 536.957 100.099 537.113 98.1646C537.157 97.8647 537.231 97.5698 537.333 97.2842C537.368 97.1735 537.411 97.0651 537.46 96.9599C537.873 96.8465 538.253 96.6343 538.565 96.3417C538.878 96.0491 539.115 95.6848 539.256 95.2802C539.414 94.4072 539.338 93.5078 539.035 92.6737C538.695 91.5088 538.225 90.3859 537.634 89.3259C537.252 88.6308 535.943 87.3681 535.932 86.5688C535.932 84.9586 539.059 83.6612 540.333 83.0241C544.224 81.0716 548.566 80.1919 552.91 80.4755C555.69 80.6609 558.701 81.5181 560.241 83.8581C561.631 85.9549 561.399 88.6772 562.036 91.1214C562.089 91.4783 562.237 91.8144 562.465 92.0945C562.767 92.3696 563.148 92.5436 563.553 92.5926C564.232 92.7295 564.928 92.7569 565.615 92.6737C565.798 92.6638 565.981 92.6366 566.159 92.5926C567.23 92.3945 568.243 91.9591 569.124 91.3184C569.703 91.1562 570.282 91.0403 570.85 90.9361H570.919C573.235 98.211 573.525 105.996 575.413 113.433C576.351 117.116 577.729 120.754 577.88 124.553C577.88 124.716 577.88 124.889 577.88 125.052C577.88 126.28 577.81 127.507 577.88 128.724C577.901 129.268 577.963 129.81 578.065 130.346C578.274 131.208 578.529 132.059 578.829 132.894C578.91 133.161 578.991 133.427 579.061 133.705C579.118 133.899 579.165 134.096 579.2 134.296C579.539 136.368 579.578 138.479 579.316 140.563Z" fill="#FBBEBE"/>
<path d="M547.027 92.9749C562.02 92.9749 574.174 80.8179 574.174 65.8215C574.174 50.8251 562.02 38.6681 547.027 38.6681C532.034 38.6681 519.88 50.8251 519.88 65.8215C519.88 80.8179 532.034 92.9749 547.027 92.9749Z" fill="#FBBEBE"/>
<path d="M719.394 213.775C718.603 206.374 715.971 199.289 711.738 193.167L713.858 205.736C712.978 205.988 712.045 205.978 711.171 205.709C710.297 205.439 709.52 204.921 708.936 204.218C707.79 202.79 706.915 201.165 706.353 199.422C703.268 191.765 699.233 184.526 694.343 177.876C677.063 176.428 659.969 169.269 644.774 160.905C629.579 152.541 615.346 142.544 600.336 133.844C597.734 132.274 595.025 130.888 592.229 129.697C587.539 127.82 582.269 126.847 577.822 124.635L576.93 124.16C575.922 123.619 574.968 122.983 574.081 122.26C573.605 121.866 573.152 121.445 572.726 120.997C570.505 118.416 568.742 115.474 567.514 112.297C565.129 107.015 564.272 100.632 561.897 95.3497C562.993 94.3297 564.22 93.4609 565.546 92.7664L566.125 92.4768C567.068 92.0362 568.049 91.6795 569.055 91.411C569.634 91.2489 570.213 91.133 570.78 91.0288H570.85C573.541 90.5948 576.298 90.8133 578.887 91.6659C582.663 92.9517 585.836 95.5003 589.033 97.9214C594.071 101.733 599.306 105.324 603.88 109.691C606.498 112.205 608.895 114.962 611.709 117.244C614.056 119.056 616.529 120.697 619.11 122.156L664.903 149.436C670.068 152.506 675.245 155.588 680.295 158.854C687.973 163.801 695.351 169.164 702.763 174.528L715.838 184.004C717.27 184.932 718.526 186.109 719.544 187.479C720.441 189.015 720.998 190.725 721.177 192.495C722.264 199.63 721.653 206.921 719.394 213.775Z" fill="#FBBEBE"/>
<path d="M586.056 160.986C584.215 169.199 575.922 174.169 571.579 181.386C566.182 190.34 568.383 200.754 570.421 211.018L559.315 220.587C557.276 222.336 555.226 224.062 553.037 225.649C549.827 227.807 546.472 229.743 542.996 231.441L533.175 236.492C530.128 238.204 526.9 239.572 523.551 240.569C517.089 242.226 510.232 241.068 503.863 239.156C503.109 238.96 502.384 238.664 501.708 238.276C501.311 238.037 500.965 237.722 500.689 237.349C500.054 236.22 499.825 234.908 500.041 233.63C500.689 222.88 503.318 212.35 505.936 201.901C507.311 195.626 509.174 189.468 511.506 183.482C513.804 178.359 516.447 173.397 519.416 168.631C522.891 162.758 526.365 156.839 530.998 151.8C532.978 149.622 535.19 147.56 536.372 144.849C538.005 141.119 537.368 136.844 537.704 132.79C537.954 129.738 538.763 126.757 540.089 123.997C540.799 122.512 541.652 121.1 542.637 119.781C543.089 120.823 543.529 121.866 543.981 122.897L544.849 124.936C545.231 125.805 545.602 126.685 546.007 127.554C547.088 130.041 548.162 132.531 549.227 135.026C550.377 138.168 552.023 141.105 554.103 143.725C556.315 146.228 559.569 148.046 562.882 147.687C564.437 147.428 565.915 146.825 567.209 145.924C568.503 145.022 569.581 143.844 570.363 142.474C571.915 139.731 573.036 136.766 573.687 133.682C574.6 129.929 574.726 126.029 574.058 122.225C572.9 114.892 569.83 107.409 567.572 100.597C566.651 98.3279 566.118 95.9194 565.997 93.473C565.995 93.1968 566.023 92.9211 566.078 92.6506V92.442C567.022 92.0014 568.002 91.6448 569.008 91.3763C569.587 91.2141 570.166 91.0983 570.734 90.994C572.726 101.806 574.722 112.595 576.721 123.36C576.721 123.615 576.826 123.87 576.872 124.125C577.15 125.677 577.44 127.218 577.764 128.759C578.088 130.299 578.366 131.55 578.714 132.929C578.829 133.392 578.957 133.867 579.084 134.331C579.443 135.605 579.837 136.856 580.242 138.107C583.068 145.672 587.782 153.213 586.056 160.986Z" fill="#A7DADC"/>
<path d="M696.242 276.446C696.142 278.041 696.449 279.635 697.134 281.079C698.825 284.184 702.925 284.891 706.399 285.18C727.008 286.879 747.742 286.25 768.209 283.304C769.321 283.222 770.399 282.885 771.359 282.319C774.266 280.28 772.518 275.31 769.298 273.712C766.078 272.113 762.349 272.553 758.875 271.824C755.409 270.947 752.108 269.515 749.1 267.584C742.035 263.522 735.086 259.274 728.253 254.841C724.165 252.212 719.336 249.408 714.738 250.972C702.241 255.189 696.15 262.996 696.242 276.446Z" fill="#040C15"/>
<path d="M544.316 121.345L544.212 121.912L544.039 122.862C543.471 125.781 542.765 128.654 541.965 131.585C539.753 139.567 536.8 147.432 533.858 155.171L510.221 217.494C508.229 222.73 506.248 227.919 503.99 233.086C503.237 234.789 502.461 236.561 501.674 238.253C498.906 244.473 496.242 250.903 495.362 257.54C494.783 261.931 494.204 266.414 495.072 270.758C495.941 275.102 498.547 279.353 502.727 280.952C504.743 281.74 507.626 282.794 507.07 284.891C506.781 286.049 505.472 286.605 504.291 286.79C502.742 287.04 501.157 286.944 499.649 286.51C498.142 286.075 496.749 285.313 495.57 284.277C493.37 282.33 491.667 279.284 488.737 278.959C486.71 278.739 484.846 279.956 482.946 280.801C475.36 284.277 466.535 281.844 458.567 279.377C459.193 276.156 462.436 274.025 465.644 273.387C468.852 272.75 472.187 273.191 475.476 273.109C476.528 273.164 477.572 272.893 478.464 272.333C479.271 271.612 479.847 270.669 480.12 269.623C482.231 263.359 483.8 256.925 484.811 250.393C485.876 243.558 486.317 236.631 487.822 229.889C488.98 224.63 490.81 219.532 492.362 214.366C495.375 203.733 497.845 192.953 499.763 182.069C500.735 177.551 501.431 172.979 501.847 168.377C502.114 164.554 501.986 160.708 502.357 156.908C502.972 151.957 504.002 147.067 505.438 142.289C506.85 137.064 508.252 131.863 509.665 126.65C511.749 118.935 513.985 110.93 519.266 104.941C521.099 102.83 523.347 101.119 525.869 99.9134C528.391 98.7078 531.134 98.0337 533.928 97.9329C534.976 97.9282 536.021 98.0409 537.043 98.2689L537.553 98.3963C538.671 98.6845 539.744 99.1291 540.738 99.7169C542.371 98.6743 543.193 99.045 544.282 100.632C545.227 102.327 545.672 104.255 545.567 106.192C545.651 111.272 545.232 116.348 544.316 121.345Z" fill="#FBBEBE"/>
<path d="M546.1 127.496L546.03 127.565L545.66 127.936L541.965 131.631L540.147 124.009L533.928 97.8982C534.975 97.8934 536.02 98.0061 537.043 98.2341C537.088 97.9342 537.161 97.6393 537.263 97.3537L537.553 98.3616L539.661 105.532L543.656 119.144L544.316 121.391L546.1 127.496Z" fill="#A7DADC"/>
<path d="M566.842 25.7749H535.735C528.059 25.7749 521.837 31.9986 521.837 39.6759V48.7C521.837 56.3774 528.059 62.6011 535.735 62.6011H566.842C574.518 62.6011 580.74 56.3774 580.74 48.7V39.6759C580.74 31.9986 574.518 25.7749 566.842 25.7749Z" fill="#040C15"/>
<path d="M584.181 45.5723C594.6 45.5723 603.047 37.1236 603.047 26.7016C603.047 16.2796 594.6 7.83093 584.181 7.83093C573.761 7.83093 565.314 16.2796 565.314 26.7016C565.314 37.1236 573.761 45.5723 584.181 45.5723Z" fill="#040C15"/>
<path opacity="0.1" d="M583.728 7.81934H583.033C587.892 8.02806 592.483 10.1056 595.847 13.6185C599.212 17.1313 601.09 21.808 601.09 26.6726C601.09 31.5373 599.212 36.214 595.847 39.7269C592.483 43.2397 587.892 45.3173 583.033 45.526H583.728C588.732 45.526 593.53 43.5378 597.069 39.9989C600.607 36.4599 602.594 31.6601 602.594 26.6553C602.594 21.6505 600.607 16.8506 597.069 13.3117C593.53 9.77274 588.732 7.78459 583.728 7.78459V7.81934Z" fill="#040C15"/>
<path opacity="0.1" d="M500.087 7.81934H500.782C495.923 8.02806 491.332 10.1056 487.968 13.6185C484.603 17.1313 482.725 21.808 482.725 26.6726C482.725 31.5373 484.603 36.214 487.968 39.7269C491.332 43.2397 495.923 45.3173 500.782 45.526H500.087C497.609 45.526 495.156 45.0379 492.867 44.0895C490.578 43.1412 488.498 41.7512 486.746 39.9989C484.995 38.2466 483.605 36.1663 482.657 33.8768C481.709 31.5873 481.221 29.1334 481.221 26.6553C481.221 24.1771 481.709 21.7233 482.657 19.4338C483.605 17.1443 484.995 15.064 486.746 13.3117C488.498 11.5594 490.578 10.1694 492.867 9.22104C495.156 8.2727 497.609 7.78459 500.087 7.78459V7.81934Z" fill="black"/>
<path opacity="0.1" d="M581.32 58.9057H533.512C532.049 58.9057 530.645 58.3252 529.609 57.2914C528.574 56.2576 527.99 54.8551 527.987 53.3916V57.0638C527.99 58.5284 528.573 59.9321 529.609 60.9677C530.644 62.0033 532.047 62.5865 533.512 62.5895H581.366C582.83 62.5865 584.234 62.0033 585.269 60.9677C586.305 59.9321 586.888 58.5284 586.891 57.0638V53.3916C586.888 54.1198 586.741 54.8402 586.459 55.5116C586.177 56.183 585.766 56.7922 585.249 57.3044C584.731 57.8166 584.118 58.2217 583.444 58.4965C582.77 58.7712 582.048 58.9103 581.32 58.9057Z" fill="black"/>
<path d="M743.506 252.073C743.506 252.073 746.494 252.594 746.98 250.173C747.224 249.014 746.401 241.577 745.463 234.14C745.012 230.48 744.525 226.831 744.131 223.911C743.657 220.332 743.309 217.864 743.309 217.864L742.765 216.057L739.545 205.238L736.511 195.043L734.276 191.035L718.189 198.866L708.183 216.161L711.286 218.119L711.831 218.467L717.54 224.444L733.546 241.241L740.75 248.806L741.595 249.686L743.506 252.073Z" fill="#FFE09C"/>
<path d="M730.86 184.154C730.86 184.154 713.233 192.425 708.994 201.415C708.994 201.415 705.033 208.979 704.535 212.999C704.535 212.999 703.377 216.671 710.685 217.575C710.685 217.575 714.009 204.079 723.98 198.217L733.963 192.367L730.86 184.154Z" fill="#E7C4C3"/>
<path d="M735.452 204.918C736.312 201.709 734.806 198.518 732.089 197.789C729.371 197.061 726.471 199.071 725.611 202.279C724.752 205.488 726.258 208.679 728.975 209.408C731.693 210.137 734.593 208.126 735.452 204.918Z" fill="#FF7F8E"/>
<path d="M733.54 225.891C734.392 222.695 732.887 219.519 730.18 218.797C727.473 218.076 724.588 220.082 723.737 223.278C722.886 226.474 724.39 229.65 727.097 230.372C729.804 231.093 732.689 229.087 733.54 225.891Z" fill="#FF7F8E"/>
<path d="M717.541 224.444C718.464 224.069 719.285 223.48 719.936 222.724C720.586 221.969 721.048 221.069 721.282 220.1C722.139 216.903 720.633 213.717 717.923 212.999C715.213 212.281 712.329 214.285 711.484 217.482C711.417 217.698 711.367 217.919 711.333 218.142L711.877 218.49L717.541 224.444Z" fill="#FF7F8E"/>
<path d="M739.07 216.717C739.705 216.878 740.367 216.902 741.011 216.788C741.656 216.675 742.27 216.425 742.811 216.057L739.591 205.238C738.632 205.594 737.775 206.18 737.097 206.946C736.418 207.712 735.938 208.633 735.7 209.628C734.855 212.86 736.36 215.999 739.07 216.717Z" fill="#FF7F8E"/>
<path d="M740.935 235.438C741.745 235.629 742.59 235.61 743.391 235.383C744.191 235.156 744.921 234.728 745.51 234.14C745.058 230.48 744.572 226.831 744.178 223.911H744.027C741.317 223.181 738.434 225.197 737.576 228.394C736.719 231.592 738.237 234.719 740.935 235.438Z" fill="#FF7F8E"/>
<path d="M740.75 248.771C741.082 248.21 741.336 247.606 741.503 246.975C742.36 243.778 740.854 240.604 738.144 239.886C737.324 239.687 736.466 239.704 735.654 239.936C734.842 240.167 734.104 240.605 733.512 241.207L740.75 248.771Z" fill="#FF7F8E"/>
<path d="M732.794 200.326L734.647 200.824C733.919 202.164 733.488 203.646 733.384 205.168C733.379 205.268 733.379 205.369 733.384 205.469C733.628 207.381 731.531 204.971 731.531 204.971C731.531 204.971 731.89 201.044 732.794 200.326Z" fill="#94CC79"/>
<path d="M724.35 212.281L726.215 212.779C725.481 214.112 725.05 215.592 724.953 217.111C724.947 217.212 724.947 217.312 724.953 217.413C725.196 219.324 723.1 216.914 723.1 216.914C723.1 216.914 723.447 212.987 724.35 212.281Z" fill="#94CC79"/>
<path d="M730.118 216.231L731.971 216.717C731.243 218.058 730.812 219.54 730.709 221.062C730.703 221.162 730.703 221.262 730.709 221.363C730.963 223.274 728.855 220.865 728.855 220.865C728.855 220.865 729.238 216.938 730.118 216.231Z" fill="#94CC79"/>
<path d="M737.53 226.205L739.395 226.692C738.661 228.03 738.23 229.513 738.132 231.036C738.127 231.136 738.127 231.236 738.132 231.337C738.376 233.248 736.279 230.839 736.279 230.839C736.279 230.839 736.638 226.912 737.53 226.205Z" fill="#94CC79"/>
<path d="M742.151 242.62L744.004 243.118C743.277 244.455 742.847 245.932 742.742 247.45C742.735 247.551 742.735 247.651 742.742 247.752C742.996 249.663 740.889 247.265 740.889 247.265C740.889 247.265 741.248 243.326 742.151 242.62Z" fill="#94CC79"/>
<path d="M732.099 231.14L733.952 231.638C733.22 232.992 732.796 234.491 732.712 236.028C732.706 236.129 732.706 236.229 732.712 236.33C732.956 238.241 730.859 235.843 730.859 235.843C730.859 235.843 731.207 231.846 732.099 231.14Z" fill="#94CC79"/>
<path d="M736.592 185.683C736.592 185.683 733.94 179.671 730.802 184.154C731.066 187.794 732.263 191.305 734.276 194.348C734.276 194.348 743.877 220.471 743.078 224.467C743.078 224.467 746.865 249.698 745.927 251.111C745.927 251.111 746.97 252.895 747.711 246.188C748.452 239.48 745.198 219.776 745.198 219.776L740.438 199.295L737.253 192.344L736.592 185.683Z" fill="#E7C4C3"/>
<path opacity="0.2" d="M736.592 185.683C736.592 185.683 733.94 179.671 730.802 184.154C731.066 187.794 732.263 191.305 734.276 194.348C734.276 194.348 743.877 220.471 743.078 224.467C743.078 224.467 746.865 249.698 745.927 251.111C745.927 251.111 746.97 252.895 747.711 246.188C748.452 239.48 745.198 219.776 745.198 219.776L740.438 199.295L737.253 192.344L736.592 185.683Z" fill="white"/>
<path d="M704.743 195.646C704.743 195.646 709.503 209.361 713.858 205.712L710.383 187.792L704.743 195.646Z" fill="#FBBEBE"/>
<path d="M379.189 251.98C379.189 251.98 421.171 322.725 430.981 332.177C430.981 332.177 472.929 375.734 451.607 372.722C450.044 372.502 419.342 346.542 417.546 342.279C415.751 338.016 357.705 262.591 357.705 262.591L365.986 254.969L379.189 251.98Z" fill="#A0616A"/>
<path opacity="0.1" d="M379.189 251.98C379.189 251.98 421.171 322.725 430.981 332.177C430.981 332.177 472.929 375.734 451.607 372.722C450.044 372.502 419.342 346.542 417.546 342.279C415.751 338.016 357.705 262.591 357.705 262.591L365.986 254.969L379.189 251.98Z" fill="black"/>
<path d="M417.581 483.027C417.581 483.027 404.146 499.824 409.752 506.543C415.357 513.262 443.28 526.109 452.29 525.576C461.81 525.02 493.717 526.734 494.841 512.138C494.841 512.138 497.076 505.419 467.972 504.296C438.867 503.172 447.808 472.937 447.808 472.937L417.581 483.027Z" fill="#040C15"/>
<g filter="url(#filter3_d_48_30)">
<path d="M257.479 340.796C257.479 340.796 244.044 386.704 284.348 394.547L328.01 392.311C328.01 392.311 389.588 379.985 406.393 388.952C406.393 388.952 413.11 390.11 410.863 399.03C408.617 407.95 414.222 468.466 414.222 468.466V488.622C414.222 488.622 452.29 488.622 456.772 484.139C456.772 484.139 453.414 466.218 456.772 451.703C460.131 437.188 451.178 391.222 451.178 391.222L450.287 363.64C450.219 360.222 449.242 356.884 447.457 353.968C445.672 351.053 443.143 348.666 440.13 347.051C438.012 345.93 435.658 345.33 433.262 345.302C433.262 345.302 357.125 332.988 330.256 335.224C303.388 337.46 257.479 340.796 257.479 340.796Z" fill="white"/>
</g>
<path d="M332.492 194.082C332.492 194.082 352.644 217.598 354.879 225.44C357.114 233.283 381.794 253.405 381.794 253.405C381.794 253.405 363.878 266.842 367.236 273.561C370.595 280.28 343.726 251.169 343.726 251.169L312.306 205.284L332.492 194.082Z" fill="#A7DADC"/>
<path opacity="0.1" d="M332.492 194.082C332.492 194.082 352.644 217.598 354.879 225.44C357.114 233.283 381.794 253.405 381.794 253.405C381.794 253.405 363.878 266.842 367.236 273.561C370.595 280.28 343.726 251.169 343.726 251.169L312.306 205.284L332.492 194.082Z" fill="black"/>
<path d="M345.892 167.207C345.892 167.207 335.816 199.642 335.816 212.003C335.816 224.363 293.266 208.643 294.389 201.924C295.512 195.206 319.023 170.566 320.146 160.488C321.27 150.409 345.892 167.207 345.892 167.207Z" fill="#A0616A"/>
<path opacity="0.1" d="M312.306 189.599C312.306 189.599 273.114 179.521 267.52 236.642C261.927 293.764 271.991 300.471 255.198 335.189C238.405 369.907 369.403 339.672 369.403 339.672C369.403 339.672 362.685 331.83 341.41 335.189L331.334 304.954C331.334 304.954 327.976 291.517 347.016 291.517C366.055 291.517 357.091 252.316 357.091 252.316C357.091 252.316 347.016 218.722 341.41 215.362C335.805 212.003 325.775 191.846 312.306 189.599Z" fill="black"/>
<path d="M312.306 187.375C312.306 187.375 273.114 177.296 267.52 234.407C261.927 291.517 271.991 298.247 255.198 332.965C238.405 367.683 369.403 337.448 369.403 337.448C369.403 337.448 362.685 329.606 341.41 332.965L331.334 302.73C331.334 302.73 328.01 289.316 347.05 289.316C366.09 289.316 357.126 250.115 357.126 250.115C357.126 250.115 347.05 216.521 341.445 213.161C335.839 209.802 325.775 189.599 312.306 187.375Z" fill="#A7DADC"/>
<path d="M335.851 187.363C356.255 187.363 372.796 170.818 372.796 150.409C372.796 130.001 356.255 113.456 335.851 113.456C315.447 113.456 298.906 130.001 298.906 150.409C298.906 170.818 315.447 187.363 335.851 187.363Z" fill="#A0616A"/>
<path d="M328.717 339.626L421.565 395.138L507.951 314.627L404.969 278.751L330.859 329.212L328.717 339.626Z" fill="#DADAE5"/>
<path d="M438.288 184.235L409.393 270.19L505.194 297.749L546.088 181.513L438.288 184.235Z" fill="#DADAE5"/>
<path opacity="0.03" d="M430.575 177.887L438.416 185.058L546.216 182.336L548.694 175.292L430.575 177.887Z" fill="black"/>
<path opacity="0.03" d="M402.12 265.244L430.576 177.887L438.416 185.058L410.25 268.858L402.12 265.244Z" fill="black"/>
<path d="M430.448 177.065L438.289 184.235L546.089 181.513L548.567 174.47L430.448 177.065Z" fill="#EFF0F4"/>
<path d="M401.992 264.433L430.448 177.065L438.288 184.235L410.122 268.036L401.992 264.433Z" fill="#EFF0F4"/>
<path opacity="0.03" d="M430.448 177.065L442.435 188.278L550.247 185.556L548.567 174.47L430.448 177.065Z" fill="black"/>
<path opacity="0.03" d="M401.992 264.433L430.448 177.065L442.435 188.278L414.269 272.078L401.992 264.433Z" fill="black"/>
<path opacity="0.03" d="M402.178 265.661L404.795 282.284L508.414 318.265L505.392 298.977L402.178 265.661Z" fill="black"/>
<path opacity="0.03" d="M325.578 320.292L402.178 265.661L405.525 282.273L330.28 338.247L325.578 320.292Z" fill="black"/>
<path d="M401.992 264.433L404.239 278.763L507.858 314.743L505.195 297.749L401.992 264.433Z" fill="#EFF0F4"/>
<path d="M325.381 319.052L401.992 264.433L404.969 278.751L329.724 334.726L325.381 319.052Z" fill="#EFF0F4"/>
<path opacity="0.03" d="M401.992 264.433L404.239 278.763L507.858 314.743L505.195 297.749L401.992 264.433Z" fill="black"/>
<path opacity="0.03" d="M325.381 319.052L401.992 264.433L404.969 278.751L329.724 334.726L325.381 319.052Z" fill="black"/>
<path d="M325.381 319.052L328.844 339.707L421.437 395.045L419.156 373.788L325.381 319.052Z" fill="#CCCAD6"/>
<path d="M367.572 315.786C367.572 315.786 365.962 318.856 368.417 320.269C369.575 320.941 377.949 322.586 386.357 324.161C390.48 324.926 394.615 325.667 397.938 326.246C401.992 326.964 404.795 327.405 404.795 327.405H406.926L419.804 327.648L431.918 327.88L437.049 326.825L434.096 306.692L418.762 289.837L415.554 292.548L415.01 293.011L406.578 297.112L382.79 308.696L372.089 313.909L370.838 314.523L367.572 315.786Z" fill="#FFE09C"/>
<path d="M445.713 325.505C445.713 325.505 442.829 303.495 434.514 295.78C434.514 295.78 427.68 288.829 423.476 286.929C423.476 286.929 419.898 284.392 416.377 292.038C416.377 292.038 429.893 300.309 432.811 313.179L435.718 326.049L445.713 325.505Z" fill="#E7C4C3"/>
<path d="M429.458 317.649C431.18 314.953 429.998 311.12 426.817 309.088C423.637 307.056 419.663 307.594 417.942 310.29C416.22 312.986 417.402 316.819 420.583 318.851C423.763 320.883 427.737 320.345 429.458 317.649Z" fill="#FF7F8E"/>
<path d="M408.332 312.869C410.054 310.173 408.872 306.34 405.691 304.308C402.511 302.276 398.537 302.814 396.816 305.51C395.094 308.206 396.276 312.038 399.457 314.071C402.637 316.103 406.611 315.564 408.332 312.869Z" fill="#FF7F8E"/>
<path d="M406.578 297.124C406.668 298.263 407.031 299.364 407.635 300.334C408.24 301.304 409.069 302.114 410.053 302.696C413.226 304.723 417.198 304.19 418.912 301.537C420.626 298.884 419.457 295.015 416.272 292.988C416.054 292.849 415.83 292.722 415.6 292.606L415.056 293.069L406.578 297.124Z" fill="#FF7F8E"/>
<path d="M407.505 323.176C407.111 323.811 406.855 324.522 406.753 325.262C406.651 326.003 406.706 326.756 406.914 327.474L419.793 327.717C419.743 326.539 419.399 325.391 418.793 324.379C418.186 323.368 417.335 322.524 416.319 321.925C413.192 319.944 409.219 320.489 407.505 323.176Z" fill="#FF7F8E"/>
<path d="M386.519 318.74C386.03 319.554 385.757 320.48 385.729 321.429C385.701 322.379 385.917 323.319 386.357 324.161C390.48 324.926 394.615 325.667 397.938 326.246L398.043 326.096C399.757 323.408 398.575 319.574 395.402 317.546C392.229 315.519 388.245 316.052 386.519 318.74Z" fill="#FF7F8E"/>
<path d="M372.089 313.932C372.585 314.485 373.154 314.969 373.78 315.369C376.953 317.396 380.926 316.863 382.64 314.21C383.133 313.393 383.406 312.462 383.432 311.508C383.458 310.554 383.237 309.609 382.79 308.766L372.089 313.932Z" fill="#FF7F8E"/>
<path d="M427.471 322.018L426.313 323.86C425.113 322.607 423.655 321.631 422.039 320.999L421.704 320.918C419.538 320.524 422.862 319.076 422.862 319.076C422.862 319.076 427.019 320.802 427.471 322.018Z" fill="#94CC79"/>
<path d="M417.407 308.719L416.249 310.573C415.05 309.315 413.592 308.335 411.975 307.7L411.639 307.619C409.485 307.237 412.797 305.777 412.797 305.777C412.797 305.777 416.955 307.503 417.407 308.719Z" fill="#94CC79"/>
<path d="M411.13 313.643L409.972 315.485C408.772 314.232 407.314 313.255 405.699 312.623L405.363 312.542C403.197 312.148 406.521 310.7 406.521 310.7C406.521 310.7 410.667 312.403 411.13 313.643Z" fill="#94CC79"/>
<path d="M397.73 318.276L396.572 320.13C395.374 318.872 393.915 317.892 392.298 317.257L391.962 317.176C389.797 316.793 393.121 315.334 393.121 315.334C393.121 315.334 397.267 317.014 397.73 318.276Z" fill="#94CC79"/>
<path d="M378.32 317.581L377.162 319.435C375.958 318.178 374.496 317.197 372.876 316.562L372.541 316.481C370.386 316.098 373.699 314.639 373.699 314.639C373.699 314.639 377.845 316.353 378.32 317.581Z" fill="#94CC79"/>
<path d="M394.245 310.631L393.086 312.473C391.888 311.215 390.43 310.234 388.813 309.6L388.477 309.519C386.311 309.136 389.635 307.677 389.635 307.677C389.635 307.677 393.781 309.403 394.245 310.631Z" fill="#94CC79"/>
<path d="M442.018 331.216C442.018 331.216 449.465 330.405 445.666 325.505C441.632 324.52 437.412 324.592 433.413 325.713C433.413 325.713 401.715 327.127 397.603 324.856C397.603 324.856 368.881 320.222 367.723 318.763C367.723 318.763 365.407 319.273 372.448 322.4C379.49 325.528 402.016 328.795 402.016 328.795L425.908 330.695L434.502 329.629L442.018 331.216Z" fill="#E7C4C3"/>
<path opacity="0.2" d="M442.018 331.216C442.018 331.216 449.465 330.405 445.666 325.505C441.632 324.52 437.412 324.592 433.413 325.713C433.413 325.713 401.715 327.127 397.603 324.856C397.603 324.856 368.881 320.222 367.723 318.763C367.723 318.763 365.407 319.273 372.448 322.4C379.49 325.528 402.016 328.795 402.016 328.795L425.908 330.695L434.502 329.629L442.018 331.216Z" fill="white"/>
<path d="M419.434 319.852C419.087 320.935 419.003 322.086 419.19 323.209C419.378 324.331 419.831 325.392 420.511 326.304C422.689 329.374 426.569 330.37 429.186 328.528C431.803 326.686 432.139 322.736 429.95 319.608C429.8 319.4 429.638 319.191 429.476 318.995L428.781 319.226L419.434 319.852Z" fill="#FF7F8E"/>
<path d="M419.156 373.788L505.195 297.749L507.835 314.535L421.438 395.045L419.156 373.788Z" fill="#CCCAD6"/>
<path d="M516.359 302.082L505.194 297.749L548.567 174.47L556.836 180.308L516.359 302.082Z" fill="#CCCAD6"/>
<g opacity="0.1">
<path d="M446.535 481.764C446.622 478.782 447.053 475.82 447.821 472.937L447.253 473.134C446.697 475.976 446.456 478.87 446.535 481.764Z" fill="white"/>
<path d="M452.291 523.317C443.28 523.85 415.346 510.991 409.752 504.272C409.014 503.367 408.562 502.262 408.455 501.098C408.289 502.043 408.319 503.011 408.542 503.943C408.765 504.876 409.177 505.753 409.752 506.52C415.346 513.239 443.28 526.086 452.291 525.553C461.811 524.997 493.718 526.711 494.841 512.115C494.919 511.723 494.866 511.316 494.69 510.957C492.119 524.371 461.567 522.796 452.291 523.317Z" fill="white"/>
</g>
<path d="M485.009 251.528C485.009 251.528 487.001 249.211 485.194 247.543C484.325 246.732 477.515 243.628 470.659 240.593C467.289 239.11 463.896 237.65 461.197 236.492L455.58 234.094L453.762 233.63L442.817 230.839L432.521 228.209L427.889 228.082L426.337 245.91L436.054 263.379L439.32 261.711L439.887 261.421L447.913 259.614L470.59 254.563L480.77 252.246L481.928 251.98L485.009 251.528Z" fill="#FFE09C"/>
<path d="M420.245 227.537C420.245 227.537 418.288 246.906 423.835 255.165C423.835 255.165 428.283 262.44 431.479 264.943C431.479 264.943 434.027 267.815 438.579 262C438.579 262 428.688 252.223 428.792 240.65L428.885 229.066L420.245 227.537Z" fill="#E7C4C3"/>
<path d="M440.896 246.197C442.904 244.243 442.664 240.737 440.359 238.366C438.054 235.994 434.557 235.655 432.548 237.608C430.54 239.561 430.78 243.067 433.085 245.439C435.39 247.811 438.887 248.15 440.896 246.197Z" fill="#FF7F8E"/>
<path d="M457.98 254.511C459.988 252.557 459.748 249.051 457.443 246.68C455.138 244.308 451.641 243.969 449.632 245.922C447.624 247.875 447.864 251.381 450.169 253.753C452.474 256.125 455.971 256.464 457.98 254.511Z" fill="#FF7F8E"/>
<path d="M447.959 259.625C448.113 258.64 448.03 257.631 447.715 256.684C447.401 255.737 446.865 254.879 446.153 254.181C443.836 251.864 440.362 251.47 438.335 253.428C436.308 255.386 436.575 258.884 438.879 261.259C439.033 261.422 439.195 261.577 439.366 261.722L439.933 261.433L447.959 259.625Z" fill="#FF7F8E"/>
<path d="M452.441 237.187C452.906 236.724 453.267 236.167 453.5 235.554C453.734 234.941 453.835 234.285 453.796 233.63L442.852 230.839C442.663 231.845 442.726 232.883 443.035 233.859C443.344 234.835 443.89 235.72 444.624 236.434C446.894 238.82 450.391 239.156 452.441 237.187Z" fill="#FF7F8E"/>
<path d="M469.42 245.203C470.006 244.602 470.428 243.86 470.645 243.048C470.862 242.237 470.867 241.383 470.659 240.569C467.289 239.087 463.896 237.627 461.197 236.469L461.07 236.573C459.066 238.531 459.309 242.041 461.614 244.415C463.919 246.79 467.416 247.161 469.42 245.203Z" fill="#FF7F8E"/>
<path d="M480.769 252.246C480.462 251.671 480.072 251.144 479.611 250.682C477.294 248.308 473.82 247.972 471.805 249.929C471.216 250.529 470.793 251.271 470.578 252.084C470.362 252.896 470.362 253.751 470.577 254.563L480.769 252.246Z" fill="#FF7F8E"/>
<path d="M435.069 234.175L436.448 232.843C437.224 234.153 438.275 235.279 439.528 236.144L439.795 236.283C441.567 237.048 438.416 237.615 438.416 237.615C438.416 237.615 435.266 235.31 435.069 234.175Z" fill="#94CC79"/>
<path d="M441.045 247.613L442.412 246.269C443.187 247.583 444.238 248.714 445.492 249.582L445.759 249.709C447.531 250.485 444.38 251.053 444.38 251.053C444.38 251.053 441.184 248.678 441.045 247.613Z" fill="#94CC79"/>
<path d="M447.38 244.635L448.758 243.292C449.533 244.606 450.584 245.736 451.839 246.605L452.105 246.732C453.877 247.508 450.727 248.076 450.727 248.076C450.727 248.076 447.53 245.771 447.38 244.635Z" fill="#94CC79"/>
<path d="M459.749 243.384L461.127 242.041C461.901 243.352 462.947 244.482 464.196 245.354L464.474 245.493C466.235 246.257 463.096 246.825 463.096 246.825C463.096 246.825 459.9 244.52 459.749 243.384Z" fill="#94CC79"/>
<path d="M476.206 247.856L477.584 246.512C478.353 247.827 479.401 248.958 480.653 249.825L480.931 249.953C482.692 250.729 479.553 251.296 479.553 251.296C479.553 251.296 476.357 248.98 476.206 247.856Z" fill="#94CC79"/>
<path d="M461.196 250.578L462.574 249.246C463.351 250.556 464.402 251.682 465.655 252.547C465.738 252.605 465.827 252.652 465.922 252.686C467.694 253.451 464.543 254.03 464.543 254.03C464.543 254.03 461.347 251.713 461.196 250.578Z" fill="#94CC79"/>
<path d="M424.507 223.39C424.507 223.39 417.987 222.591 420.245 227.537C423.491 229.195 427.107 229.993 430.749 229.854C430.749 229.854 458.093 235.021 461.151 237.778C461.151 237.778 484.742 247.485 485.472 248.991C485.472 248.991 487.545 248.991 482.171 244.925C476.797 240.859 458.232 233.503 458.232 233.503L438.219 227.074L430.668 226.251L424.507 223.39Z" fill="#E7C4C3"/>
<path opacity="0.2" d="M424.507 223.39C424.507 223.39 417.987 222.591 420.245 227.537C423.491 229.195 427.107 229.993 430.749 229.854C430.749 229.854 458.093 235.021 461.151 237.778C461.151 237.778 484.742 247.485 485.472 248.991C485.472 248.991 487.545 248.991 482.171 244.925C476.797 240.859 458.232 233.503 458.232 233.503L438.219 227.074L430.668 226.251L424.507 223.39Z" fill="white"/>
<path d="M391.164 250.37C394.49 248.624 397.5 246.333 400.07 243.593C401.228 242.226 402.201 240.685 403.394 239.341C406.401 236.128 410.309 233.899 414.605 232.947C418.867 232.011 423.225 231.587 427.588 231.684C430.507 231.498 433.436 231.852 436.227 232.727C437.624 233.184 438.881 233.988 439.882 235.064C440.883 236.14 441.594 237.452 441.949 238.878C442.586 242.353 440.316 245.724 437.594 247.96C435.06 250.028 432.077 251.476 428.885 252.188C426.283 252.639 423.657 252.944 421.021 253.104C405.525 254.725 391.697 263.159 378.17 270.839C366.241 277.593 359.477 277.28 347.097 283.141C346.61 279.434 341.005 282.307 341.086 278.566C341.155 275.774 341.294 271.511 343.935 269.866C347.004 267.954 352.042 267.549 355.516 266.391C363.499 263.773 371.295 260.618 378.853 256.949C383.03 254.903 387.134 252.71 391.164 250.37Z" fill="#A0616A"/>
<path opacity="0.1" d="M288.83 240.002L348.208 293.752C348.208 293.752 359.407 271.36 362.766 271.36C366.125 271.36 322.463 205.33 322.463 205.33C322.463 205.33 311.263 191.893 304.546 198.611C297.829 205.33 277.631 200.801 288.83 240.002Z" fill="black"/>
<path d="M287.706 237.766L347.05 291.517C347.05 291.517 358.249 269.113 361.608 269.113C364.966 269.113 321.293 203.083 321.293 203.083C321.293 203.083 310.093 189.634 303.376 196.352C296.659 203.071 276.507 198.565 287.706 237.766Z" fill="#A7DADC"/>
<path d="M385.408 143.019C386.704 141.577 387.756 139.934 388.523 138.153C393.642 126.569 385.524 112.019 371.661 108.034C364.712 106.007 356.929 106.413 349.992 104.258C344.409 102.532 339.707 99.2651 334.588 96.7166C324.969 91.9759 314.325 89.6915 303.608 90.0673C293.127 90.438 281.731 94.1218 277.434 102.219C271.157 114.012 282.703 128.863 275.708 140.343C270.566 148.776 258.093 151.267 247.751 154.927C237.043 158.631 227.295 164.674 219.214 172.616C211.107 180.725 205.316 191.846 209.393 201.901C211.767 207.798 217.129 212.408 221.391 217.494C228.502 225.838 232.661 236.296 233.225 247.246C233.788 258.196 230.723 269.025 224.507 278.056C222.515 280.917 220.187 283.709 219.365 286.953C217.396 294.691 225.341 302.475 234.525 303.981C243.709 305.487 253.24 302.058 260.386 296.996C266.983 292.447 272.293 286.27 275.801 279.064C284.29 261.062 278.326 240.836 277.48 221.455C277.376 219.197 277.48 216.741 279.067 214.968C281.522 212.316 286.155 212.385 290.116 212.037C300.365 211.134 309.804 205.388 314.147 197.465C322.451 182.22 312.781 160.916 327.292 149.448C345.556 135.014 371.846 157.835 385.408 143.019Z" fill="#040C15"/>
<path opacity="0.1" d="M371.66 107.988H371.544C376.964 114.267 379.003 122.746 375.783 130.068C375.016 131.848 373.964 133.491 372.668 134.933C359.106 149.749 332.816 126.928 314.552 141.362C300.04 152.831 309.711 174.134 301.407 189.379C297.099 197.302 287.625 203.048 277.375 203.952C273.415 204.299 268.782 204.23 266.327 206.882C264.694 208.655 264.636 211.111 264.74 213.37C265.585 232.75 271.55 252.976 263.061 270.978C259.553 278.184 254.243 284.361 247.646 288.91C240.5 293.949 230.98 297.425 221.784 295.919L221.147 295.78C222.718 297.974 224.709 299.834 227.006 301.25C229.303 302.666 231.858 303.61 234.524 304.028C243.72 305.522 253.182 302.047 260.385 296.996C266.983 292.447 272.293 286.27 275.8 279.064C284.29 261.062 278.325 240.836 277.48 221.455C277.375 219.197 277.48 216.741 279.066 214.968C281.522 212.316 286.154 212.385 290.115 212.037C300.365 211.134 309.803 205.388 314.147 197.465C322.45 182.22 312.78 160.916 327.291 149.448C345.555 135.014 371.845 157.835 385.407 143.019C386.703 141.577 387.755 139.934 388.523 138.153C393.642 126.534 385.523 112.077 371.66 107.988Z" fill="black"/>
</g>
<defs>
<filter id="filter0_d_48_30" x="619.593" y="371.765" width="231.395" height="144.052" filterUnits="userSpaceOnUse" color-interpolation-filters="sRGB">
<feFlood flood-opacity="0" result="BackgroundImageFix"/>
<feColorMatrix in="SourceAlpha" type="matrix" values="0 0 0 0 0 0 0 0 0 0 0 0 0 0 0 0 0 0 127 0" result="hardAlpha"/>
<feOffset dy="2"/>
<feGaussianBlur stdDeviation="2"/>
<feComposite in2="hardAlpha" operator="out"/>
<feColorMatrix type="matrix" values="0 0 0 0 0.6568 0 0 0 0 0.85632 0 0 0 0 0.8632 0 0 0 1 0"/>
<feBlend mode="normal" in2="BackgroundImageFix" result="effect1_dropShadow_48_30"/>
<feBlend mode="normal" in="SourceGraphic" in2="effect1_dropShadow_48_30" result="shape"/>
</filter>
<filter id="filter1_d_48_30" x="813.807" y="301.604" width="86.9961" height="182.02" filterUnits="userSpaceOnUse" color-interpolation-filters="sRGB">
<feFlood flood-opacity="0" result="BackgroundImageFix"/>
<feColorMatrix in="SourceAlpha" type="matrix" values="0 0 0 0 0 0 0 0 0 0 0 0 0 0 0 0 0 0 127 0" result="hardAlpha"/>
<feOffset dy="2"/>
<feGaussianBlur stdDeviation="2"/>
<feComposite in2="hardAlpha" operator="out"/>
<feColorMatrix type="matrix" values="0 0 0 0 0.6568 0 0 0 0 0.85632 0 0 0 0 0.8632 0 0 0 1 0"/>
<feBlend mode="normal" in2="BackgroundImageFix" result="effect1_dropShadow_48_30"/>
<feBlend mode="normal" in="SourceGraphic" in2="effect1_dropShadow_48_30" result="shape"/>
</filter>
<filter id="filter2_d_48_30" x="501.565" y="156.264" width="225.963" height="137.903" filterUnits="userSpaceOnUse" color-interpolation-filters="sRGB">
<feFlood flood-opacity="0" result="BackgroundImageFix"/>
<feColorMatrix in="SourceAlpha" type="matrix" values="0 0 0 0 0 0 0 0 0 0 0 0 0 0 0 0 0 0 127 0" result="hardAlpha"/>
<feOffset dy="2"/>
<feGaussianBlur stdDeviation="2"/>
<feComposite in2="hardAlpha" operator="out"/>
<feColorMatrix type="matrix" values="0 0 0 0 0.6568 0 0 0 0 0.85632 0 0 0 0 0.8632 0 0 0 1 0"/>
<feBlend mode="normal" in2="BackgroundImageFix" result="effect1_dropShadow_48_30"/>
<feBlend mode="normal" in="SourceGraphic" in2="effect1_dropShadow_48_30" result="shape"/>
</filter>
<filter id="filter3_d_48_30" x="251.329" y="332.953" width="210.197" height="161.669" filterUnits="userSpaceOnUse" color-interpolation-filters="sRGB">
<feFlood flood-opacity="0" result="BackgroundImageFix"/>
<feColorMatrix in="SourceAlpha" type="matrix" values="0 0 0 0 0 0 0 0 0 0 0 0 0 0 0 0 0 0 127 0" result="hardAlpha"/>
<feOffset dy="2"/>
<feGaussianBlur stdDeviation="2"/>
<feComposite in2="hardAlpha" operator="out"/>
<feColorMatrix type="matrix" values="0 0 0 0 0.6568 0 0 0 0 0.85632 0 0 0 0 0.8632 0 0 0 1 0"/>
<feBlend mode="normal" in2="BackgroundImageFix" result="effect1_dropShadow_48_30"/>
<feBlend mode="normal" in="SourceGraphic" in2="effect1_dropShadow_48_30" result="shape"/>
</filter>
<clipPath id="clip0_48_30">
<rect width="1206" height="669" fill="white"/>
</clipPath>
</defs>
</svg>
