<?xml version="1.0" standalone="no"?>
<!DOCTYPE svg PUBLIC "-//W3C//DTD SVG 20010904//EN"
 "http://www.w3.org/TR/2001/REC-SVG-20010904/DTD/svg10.dtd">
<svg version="1.0" xmlns="http://www.w3.org/2000/svg"
 width="1080.000000pt" height="1080.000000pt" viewBox="0 0 1080.000000 1080.000000"
 preserveAspectRatio="xMidYMid meet">

<g transform="translate(0.000000,1080.000000) scale(0.100000,-0.100000)"
fill="currentColor" stroke="none">
<path fill="#ff5ca3" d="M3656 7750 c-524 -60 -1015 -420 -1199 -880 -82 -204 -112 -389 -104
-625 12 -343 123 -676 328 -984 79 -119 203 -273 281 -348 l44 -43 59 60 59
60 -65 68 c-255 261 -436 594 -510 942 -31 143 -34 450 -5 580 79 360 276 627
608 825 401 238 868 242 1332 9 415 -207 685 -509 866 -967 23 -60 46 -105 50
-100 4 4 40 55 80 113 221 319 485 542 799 674 223 94 394 130 626 130 171 0
270 -14 414 -59 340 -108 627 -398 776 -785 59 -151 79 -272 80 -460 0 -229
-29 -357 -125 -555 -87 -180 -242 -370 -400 -489 -36 -27 -67 -51 -69 -53 -2
-1 17 -34 43 -73 l47 -71 47 33 c89 62 315 297 381 397 112 169 189 354 228
548 27 134 24 404 -6 543 -45 214 -123 400 -238 575 -81 121 -273 317 -383
390 -384 254 -870 302 -1359 133 -340 -117 -633 -323 -884 -623 l-25 -29 -27
54 c-112 221 -326 479 -518 623 -254 191 -545 321 -835 372 -107 18 -299 26
-396 15z"/>
<path fill="#ff5ca3" d="M4021 6675 c-90 -20 -156 -43 -231 -80 -295 -148 -543 -516 -606
-900 -19 -122 -14 -360 11 -475 68 -309 217 -587 435 -813 l95 -98 43 51 44
51 -74 77 c-214 225 -350 479 -408 763 -25 121 -27 340 -5 455 44 232 160 452
324 615 97 97 187 154 306 196 75 26 90 28 245 28 143 0 176 -3 245 -23 185
-53 362 -160 517 -310 119 -115 208 -239 294 -405 36 -71 67 -127 69 -125 1 1
36 53 76 113 283 425 778 634 1239 525 104 -25 263 -103 347 -170 166 -133
289 -351 344 -610 26 -124 32 -372 10 -480 -44 -224 -156 -445 -307 -608 l-61
-67 41 -48 c23 -26 47 -47 52 -47 6 0 36 29 67 64 264 299 387 656 356 1035
-38 473 -284 853 -652 1008 -394 166 -861 96 -1234 -186 -73 -56 -190 -169
-242 -236 -14 -17 -26 -25 -28 -18 -2 6 -30 50 -61 97 -225 335 -550 560 -896
621 -108 18 -268 18 -355 0z"/>
<path fill="#ff5ca3" d="M2280 5543 c-19 -120 -17 -346 3 -460 44 -242 146 -466 316 -688 179
-236 1163 -1122 2236 -2014 421 -351 458 -381 466 -381 12 0 22 252 16 408
-37 889 -463 1690 -1192 2239 -111 83 -164 117 -172 109 -4 -3 -1 -52 5 -107
18 -149 61 -267 157 -427 87 -147 118 -211 146 -309 19 -67 45 -250 36 -259
-2 -3 -96 68 -208 158 -236 189 -470 366 -794 601 -290 210 -369 274 -479 384
-93 93 -222 258 -299 383 -52 85 -166 318 -193 398 -10 28 -21 52 -25 52 -3 0
-12 -39 -19 -87z"/>
<path fill="#ff5ca3" d="M8495 5615 c-81 -208 -161 -366 -255 -509 -182 -275 -314 -399 -790
-741 -235 -169 -524 -388 -749 -569 -107 -86 -196 -154 -198 -152 -6 6 17 178
32 239 20 78 66 191 103 252 16 28 52 87 80 133 75 124 131 311 132 445 l0 48
-72 -49 c-217 -147 -526 -435 -678 -632 -329 -427 -526 -900 -597 -1437 -17
-134 -25 -571 -10 -626 l8 -28 107 88 c812 663 1912 1621 2351 2048 378 367
548 694 577 1111 6 96 -7 282 -25 364 -7 30 -9 32 -16 15z"/>
</g>
</svg>
